<svg width="900" height="800" viewBox="0 0 900 800" fill="none" xmlns="http://www.w3.org/2000/svg">
<path d="M133.854 711.724L63.5061 10.3806H836.494L766.069 711.618L449.529 789.618L133.854 711.724Z" fill="#E44D26"/>
<path d="M450 730L705.783 666.962L765.963 67.7246H450V730Z" fill="#F16529"/>
<path d="M450 327.845H321.947L313.102 239.757H450V153.745H207.345L209.665 176.82L233.445 413.863H450V327.845ZM450 551.238L449.571 551.345L341.803 525.47L334.92 456.876H237.769L251.325 591.932L449.557 640.845L450 640.738V551.238Z" fill="#EBEBEB"/>
<path d="M449.663 327.845V413.863H568.821L557.592 525.42L449.663 551.313V640.807L648.049 591.932L649.505 577.401L672.244 350.945L674.599 327.845H648.528H449.663ZM449.663 153.745V239.757H683.41L685.35 220.432L689.766 176.82L692.079 153.745H449.663Z" fill="white"/>
</svg>
