<svg width="900" height="800" viewBox="0 0 900 800" fill="none" xmlns="http://www.w3.org/2000/svg">
<path d="M9.89972 8.7998H890.1V791.206H9.89972V8.7998Z" fill="#F0DB4F"/>
<path d="M818.065 604.601C811.618 568.907 785.433 538.926 707.871 510.969C680.928 499.963 650.89 492.082 641.939 473.932C638.761 463.369 638.339 457.419 640.35 451.026C646.123 430.276 673.988 423.807 696.073 429.757C710.297 433.994 723.762 443.738 731.883 459.282C769.866 437.419 769.789 437.563 796.31 422.538C786.6 409.157 781.418 402.982 775.062 397.257C752.218 374.576 721.09 362.894 671.309 363.788L645.378 366.769C620.529 372.351 596.848 383.944 582.961 399.488C541.294 441.513 553.177 515.063 603.879 545.332C653.829 578.657 727.207 586.238 736.58 617.401C745.7 655.551 705.038 667.901 664.622 663.513C634.838 658.007 618.272 644.551 600.364 620.082C567.401 637.038 567.401 637.038 533.51 654.363C541.547 669.982 549.992 677.051 563.464 690.582C627.223 748.069 786.776 745.244 815.393 658.232C816.553 655.244 824.26 635.319 818.065 604.601ZM488.405 368.394H406.076L405.739 557.594C405.739 597.832 408.08 634.719 400.718 646.026C388.674 668.263 357.462 665.507 343.238 661.194C328.761 654.869 321.399 645.876 312.87 633.163C310.528 629.513 308.771 626.688 308.18 626.469L241.243 662.907C252.373 683.213 268.77 700.838 289.772 712.288C321.146 729.026 363.312 734.157 407.412 725.157C436.114 717.726 460.878 702.332 473.843 678.901C492.589 648.182 488.567 611.001 488.398 569.876C488.82 502.782 488.405 435.701 488.405 368.394Z" fill="#323330"/>
</svg>
