<svg width="900" height="800" viewBox="0 0 900 800" fill="none" xmlns="http://www.w3.org/2000/svg">
<g clip-path="url(#clip0_11_33)">
<path d="M896.384 373.799C889.964 365.465 807.597 230.754 793.699 208.527C778.723 186.308 772.303 190.475 762.7 191.859C753.097 193.242 649.308 216.861 637.541 218.244C625.775 221.02 618.283 226.578 625.775 240.463C632.194 252.964 700.689 377.966 715.633 407.118L442.848 491.8L226.726 21.0364C218.169 4.37669 216.025 -1.18213 196.773 0.209672C177.521 1.60147 26.6786 18.2611 15.9839 18.2611C5.28922 19.6529 -6.49689 25.2034 4.21717 58.5395C14.9312 91.8756 186.072 569.615 190.354 583.508C194.635 597.401 207.468 619.619 236.355 611.285C266.308 601.559 369.005 566.848 425.701 547.397C455.654 616.836 515.56 758.497 527.327 779.324C542.303 807.101 552.998 801.543 575.466 793.209C593.652 786.266 855.749 664.09 867.509 657.106C879.27 650.122 886.767 645.996 878.204 630.72C871.784 619.611 803.289 498.784 766.949 436.287C791.555 427.953 880.342 397.401 889.971 393.234C900.665 389.042 902.809 382.125 896.39 373.791L896.384 373.799ZM401.089 505.701C397.86 507.093 244.906 554.331 237.421 557.089C228.864 559.864 228.864 558.481 228.864 554.314C226.726 550.138 47.0088 66.8735 43.7991 61.3315C41.6615 55.7727 41.6615 50.2222 43.7991 50.2222C45.9368 50.2222 188.21 33.5374 192.491 33.5374C197.839 33.5374 196.773 34.9292 198.911 39.0962C198.911 39.0962 398.952 487.658 402.161 494.626C406.443 501.568 404.299 504.352 401.089 505.735V505.701ZM831.124 609.893C833.262 615.452 836.471 618.228 827.895 621.003C820.41 625.195 570.086 734.887 564.739 737.662C559.391 740.438 556.182 741.855 549.762 729.328C543.343 716.802 462.041 534.896 462.041 534.896L728.44 444.621C734.859 441.846 736.997 440.429 741.278 448.814C745.56 458.539 828.999 605.752 831.137 609.919L831.124 609.893ZM848.238 365.465C841.819 366.857 744.475 398.793 744.475 398.793L664.246 257.097C662.108 252.905 659.964 248.763 665.318 247.372C670.671 245.98 761.596 225.153 765.871 223.761C770.146 222.369 773.362 220.986 778.71 230.703C784.057 239.038 852.52 352.922 855.73 357.089C858.939 361.256 854.657 364.031 848.238 365.423V365.465Z" fill="#FB503B"/>
</g>
<defs>
<clipPath id="clip0_11_33">
<rect width="900" height="800" fill="white"/>
</clipPath>
</defs>
</svg>
