<svg width="368" height="55" viewBox="0 0 368 55" fill="none" xmlns="http://www.w3.org/2000/svg">
<rect x="11.2883" y="17.9776" width="36.3733" height="11.2883" rx="2" transform="rotate(90 11.2883 17.9776)" fill="#845EC2"/>
<rect x="47.6616" y="17.9776" width="36.3733" height="11.2883" rx="2" transform="rotate(90 47.6616 17.9776)" fill="#845EC2"/>
<rect x="47.6616" width="36.3733" height="47.6615" rx="10" transform="rotate(90 47.6616 0)" fill="#845EC2"/>
<rect x="29.2659" width="45.9892" height="11.2883" rx="2" transform="rotate(90 29.2659 0)" fill="#FFC75F"/>
<path d="M79.608 16.536V20.92H70.456V25.656H77.304V29.912H70.456V39H64.984V16.536H79.608ZM87.956 24.12C88.596 23.1387 89.396 22.3707 90.356 21.816C91.316 21.24 92.3827 20.952 93.556 20.952V26.744H92.052C90.6867 26.744 89.6627 27.0427 88.98 27.64C88.2973 28.216 87.956 29.24 87.956 30.712V39H82.484V21.144H87.956V24.12ZM113.003 29.784C113.003 30.296 112.972 30.8293 112.908 31.384H100.524C100.609 32.4933 100.961 33.3467 101.58 33.944C102.22 34.52 102.998 34.808 103.916 34.808C105.281 34.808 106.23 34.232 106.764 33.08H112.588C112.289 34.2533 111.745 35.3093 110.956 36.248C110.188 37.1867 109.217 37.9227 108.044 38.456C106.87 38.9893 105.558 39.256 104.108 39.256C102.358 39.256 100.801 38.8827 99.4355 38.136C98.0702 37.3893 97.0035 36.3227 96.2355 34.936C95.4675 33.5493 95.0835 31.928 95.0835 30.072C95.0835 28.216 95.4568 26.5947 96.2035 25.208C96.9715 23.8213 98.0382 22.7547 99.4035 22.008C100.769 21.2613 102.337 20.888 104.108 20.888C105.836 20.888 107.372 21.2507 108.716 21.976C110.06 22.7013 111.105 23.736 111.852 25.08C112.62 26.424 113.003 27.992 113.003 29.784ZM107.404 28.344C107.404 27.4053 107.084 26.6587 106.444 26.104C105.804 25.5493 105.004 25.272 104.044 25.272C103.126 25.272 102.348 25.5387 101.708 26.072C101.089 26.6053 100.705 27.3627 100.556 28.344H107.404ZM134.13 21.144L122.93 47.48H117.042L121.138 38.392L113.874 21.144H119.986L124.114 32.312L128.21 21.144H134.13Z" fill="#845EC2"/>
<path d="M144.525 16.536C146.893 16.536 148.962 17.0053 150.733 17.944C152.504 18.8827 153.869 20.2053 154.829 21.912C155.81 23.5973 156.301 25.5493 156.301 27.768C156.301 29.9653 155.81 31.9173 154.829 33.624C153.869 35.3307 152.493 36.6533 150.701 37.592C148.93 38.5307 146.872 39 144.525 39H136.109V16.536H144.525ZM144.173 34.264C146.242 34.264 147.853 33.6987 149.005 32.568C150.157 31.4373 150.733 29.8373 150.733 27.768C150.733 25.6987 150.157 24.088 149.005 22.936C147.853 21.784 146.242 21.208 144.173 21.208H141.581V34.264H144.173ZM176.191 29.784C176.191 30.296 176.159 30.8293 176.095 31.384H163.711C163.796 32.4933 164.148 33.3467 164.767 33.944C165.407 34.52 166.186 34.808 167.103 34.808C168.468 34.808 169.418 34.232 169.951 33.08H175.775C175.476 34.2533 174.932 35.3093 174.143 36.248C173.375 37.1867 172.404 37.9227 171.231 38.456C170.058 38.9893 168.746 39.256 167.295 39.256C165.546 39.256 163.988 38.8827 162.623 38.136C161.258 37.3893 160.191 36.3227 159.423 34.936C158.655 33.5493 158.271 31.928 158.271 30.072C158.271 28.216 158.644 26.5947 159.391 25.208C160.159 23.8213 161.226 22.7547 162.591 22.008C163.956 21.2613 165.524 20.888 167.295 20.888C169.023 20.888 170.559 21.2507 171.903 21.976C173.247 22.7013 174.292 23.736 175.039 25.08C175.807 26.424 176.191 27.992 176.191 29.784ZM170.591 28.344C170.591 27.4053 170.271 26.6587 169.631 26.104C168.991 25.5493 168.191 25.272 167.231 25.272C166.314 25.272 165.535 25.5387 164.895 26.072C164.276 26.6053 163.892 27.3627 163.743 28.344H170.591ZM187.11 33.88L190.982 21.144H196.806L190.47 39H183.718L177.382 21.144H183.238L187.11 33.88ZM215.941 29.784C215.941 30.296 215.909 30.8293 215.845 31.384H203.461C203.546 32.4933 203.898 33.3467 204.517 33.944C205.157 34.52 205.936 34.808 206.853 34.808C208.218 34.808 209.168 34.232 209.701 33.08H215.525C215.226 34.2533 214.682 35.3093 213.893 36.248C213.125 37.1867 212.154 37.9227 210.981 38.456C209.808 38.9893 208.496 39.256 207.045 39.256C205.296 39.256 203.738 38.8827 202.373 38.136C201.008 37.3893 199.941 36.3227 199.173 34.936C198.405 33.5493 198.021 31.928 198.021 30.072C198.021 28.216 198.394 26.5947 199.141 25.208C199.909 23.8213 200.976 22.7547 202.341 22.008C203.706 21.2613 205.274 20.888 207.045 20.888C208.773 20.888 210.309 21.2507 211.653 21.976C212.997 22.7013 214.042 23.736 214.789 25.08C215.557 26.424 215.941 27.992 215.941 29.784ZM210.341 28.344C210.341 27.4053 210.021 26.6587 209.381 26.104C208.741 25.5493 207.941 25.272 206.981 25.272C206.064 25.272 205.285 25.5387 204.645 26.072C204.026 26.6053 203.642 27.3627 203.493 28.344H210.341ZM224.3 15.32V39H218.828V15.32H224.3ZM236.393 39.256C234.644 39.256 233.065 38.8827 231.657 38.136C230.271 37.3893 229.172 36.3227 228.361 34.936C227.572 33.5493 227.177 31.928 227.177 30.072C227.177 28.2373 227.583 26.6267 228.393 25.24C229.204 23.832 230.313 22.7547 231.721 22.008C233.129 21.2613 234.708 20.888 236.457 20.888C238.207 20.888 239.785 21.2613 241.193 22.008C242.601 22.7547 243.711 23.832 244.521 25.24C245.332 26.6267 245.737 28.2373 245.737 30.072C245.737 31.9067 245.321 33.528 244.489 34.936C243.679 36.3227 242.559 37.3893 241.129 38.136C239.721 38.8827 238.143 39.256 236.393 39.256ZM236.393 34.52C237.439 34.52 238.324 34.136 239.049 33.368C239.796 32.6 240.169 31.5013 240.169 30.072C240.169 28.6427 239.807 27.544 239.081 26.776C238.377 26.008 237.503 25.624 236.457 25.624C235.391 25.624 234.505 26.008 233.801 26.776C233.097 27.5227 232.745 28.6213 232.745 30.072C232.745 31.5013 233.087 32.6 233.769 33.368C234.473 34.136 235.348 34.52 236.393 34.52ZM254.112 23.672C254.646 22.84 255.382 22.168 256.32 21.656C257.259 21.144 258.358 20.888 259.616 20.888C261.088 20.888 262.422 21.2613 263.616 22.008C264.811 22.7547 265.75 23.8213 266.432 25.208C267.136 26.5947 267.488 28.2053 267.488 30.04C267.488 31.8747 267.136 33.496 266.432 34.904C265.75 36.2907 264.811 37.368 263.616 38.136C262.422 38.8827 261.088 39.256 259.616 39.256C258.379 39.256 257.28 39 256.32 38.488C255.382 37.976 254.646 37.3147 254.112 36.504V47.512H248.64V21.144H254.112V23.672ZM261.92 30.04C261.92 28.6747 261.536 27.608 260.768 26.84C260.022 26.0507 259.094 25.656 257.984 25.656C256.896 25.656 255.968 26.0507 255.2 26.84C254.454 27.6293 254.08 28.7067 254.08 30.072C254.08 31.4373 254.454 32.5147 255.2 33.304C255.968 34.0933 256.896 34.488 257.984 34.488C259.072 34.488 260 34.0933 260.768 33.304C261.536 32.4933 261.92 31.4053 261.92 30.04ZM287.191 29.784C287.191 30.296 287.159 30.8293 287.095 31.384H274.711C274.796 32.4933 275.148 33.3467 275.767 33.944C276.407 34.52 277.186 34.808 278.103 34.808C279.468 34.808 280.418 34.232 280.951 33.08H286.775C286.476 34.2533 285.932 35.3093 285.143 36.248C284.375 37.1867 283.404 37.9227 282.231 38.456C281.058 38.9893 279.746 39.256 278.295 39.256C276.546 39.256 274.988 38.8827 273.623 38.136C272.258 37.3893 271.191 36.3227 270.423 34.936C269.655 33.5493 269.271 31.928 269.271 30.072C269.271 28.216 269.644 26.5947 270.391 25.208C271.159 23.8213 272.226 22.7547 273.591 22.008C274.956 21.2613 276.524 20.888 278.295 20.888C280.023 20.888 281.559 21.2507 282.903 21.976C284.247 22.7013 285.292 23.736 286.039 25.08C286.807 26.424 287.191 27.992 287.191 29.784ZM281.591 28.344C281.591 27.4053 281.271 26.6587 280.631 26.104C279.991 25.5493 279.191 25.272 278.231 25.272C277.314 25.272 276.535 25.5387 275.895 26.072C275.276 26.6053 274.892 27.3627 274.743 28.344H281.591ZM295.55 24.12C296.19 23.1387 296.99 22.3707 297.95 21.816C298.91 21.24 299.976 20.952 301.15 20.952V26.744H299.646C298.28 26.744 297.256 27.0427 296.574 27.64C295.891 28.216 295.55 29.24 295.55 30.712V39H290.078V21.144H295.55V24.12Z" fill="#FFC75F"/>
</svg>
