<svg width="900" height="800" viewBox="0 0 900 800" fill="none" xmlns="http://www.w3.org/2000/svg">
<g clip-path="url(#clip0_11_37)">
<path d="M244.95 651.802C239.475 651.802 234.6 651.502 230.475 650.936V667.102C238.95 670.102 245.962 671.602 251.7 671.602C273.187 671.602 292.987 659.936 311.062 636.502C334.162 606.169 352.837 557.469 367.012 490.536H334.012C328.732 529.5 318.22 567.761 302.7 604.502C303.75 597.536 301.162 585.302 295.012 567.769L267.75 490.536H233.625L271.65 593.836C277.387 609.336 280.275 619.669 280.275 624.736C280.275 632.036 276.6 638.636 269.212 644.536C263.062 649.336 255 651.802 244.95 651.802Z" fill="#105E86"/>
<path d="M730.577 443.099V624.066H829.202V601.799H763.765V443.099H730.577Z" fill="#DE8A03"/>
<path d="M39 479.732H39.375L91.875 624.066H118.312L171.187 479.732H171.487C177.257 527.687 180.635 575.845 181.612 624.066H216.487C214.341 563.553 208.985 503.164 200.437 443.099H159.375L108.862 576.099H108.562L58.5 443.099H15.375C6.87015 503.157 1.73879 563.554 0 624.066H31.6875C32.7 571.132 35.1375 523.032 39 479.732Z" fill="#105E86"/>
<path d="M700.463 530.199C700.463 470.332 673.538 440.332 619.651 440.332C593.251 440.332 572.626 447.932 557.776 463.132C541.651 479.765 533.551 504.232 533.551 536.599C533.551 568.399 540.676 591.765 555.076 606.632C568.201 620.065 587.963 626.765 614.438 626.765C624.338 626.765 633.413 625.699 641.626 623.565L691.313 648.832L704.813 628.499H704.701L666.601 612.132C669.976 609.632 673.238 606.965 676.163 603.965C692.401 587.365 700.463 562.765 700.463 530.199ZM617.851 604.365C601.163 604.365 588.976 598.899 581.176 587.999L581.251 587.832C572.813 576.065 568.613 557.065 568.613 531.032C568.613 485.432 584.513 462.632 616.238 462.632C632.851 462.632 645.113 468.099 652.876 478.999C661.276 490.832 665.476 509.632 665.476 535.399C665.476 581.332 649.576 604.365 617.851 604.365ZM495.001 535.799C495.001 535.799 465.226 520.899 450.488 513.865C434.288 505.999 425.513 496.765 425.513 486.065C425.543 482.771 426.392 479.524 428 476.556C429.608 473.588 431.935 470.973 434.813 468.899C440.513 464.365 448.726 462.165 459.338 462.165C472.426 462.165 485.738 464.699 499.238 469.699L507.226 454.132C491.569 445.212 473.321 440.555 454.726 440.732C435.976 440.732 420.788 445.199 408.976 454.299C397.238 463.299 391.351 475.065 391.351 489.799C391.351 507.499 399.226 518.265 415.051 528.332C415.051 528.332 444.113 542.865 458.663 549.832C474.338 557.532 482.963 566.699 482.963 577.499C483.026 581.408 482.038 585.275 480.081 588.776C478.124 592.278 475.256 595.314 471.713 597.632C464.588 602.432 454.801 604.832 442.351 604.832C428.963 604.832 414.151 601.299 397.726 594.099L388.838 609.665C407.926 620.899 427.463 626.532 447.826 626.532C469.613 626.532 486.826 621.632 499.726 611.799C512.626 601.999 519.076 589.365 519.076 573.965L519.301 574.065C519.301 556.432 511.238 545.799 495.001 535.799Z" fill="#DE8A03"/>
<path d="M615.187 192.27C610.874 192.27 607.949 192.737 604.912 193.337V193.77H605.437C607.462 197.17 610.912 199.67 613.462 202.704C615.487 206.204 617.212 209.704 619.237 213.17L619.762 212.67C623.287 210.504 625.012 207.037 625.012 201.77C623.512 200.237 623.287 198.704 622.012 197.204C620.512 195.004 617.287 193.937 615.262 192.204L615.187 192.27Z" fill="#105E86"/>
<path d="M888.563 439.999C881.17 431.514 872.384 424.064 862.501 417.899C854.476 413.132 836.926 406.432 833.626 398.432L833.138 397.965C838.613 397.532 845.138 395.799 850.388 394.499C858.901 392.532 866.701 392.965 875.513 391.032C879.488 390.165 883.501 389.065 887.513 387.965V385.999C883.013 382.065 879.638 376.732 874.988 373.065C861.99 363.153 848.149 354.148 833.588 346.132C825.713 341.732 815.738 338.932 807.451 335.199C804.451 333.899 799.426 333.232 797.701 331.032C793.201 326.265 790.576 319.899 787.388 314.199C780.188 302.165 773.138 288.832 766.876 276.132C762.376 267.565 759.638 259.032 754.126 251.165C728.251 213.965 700.238 191.399 657.151 169.365C647.888 164.799 636.788 162.832 625.051 160.399C618.788 160.132 612.526 159.732 606.301 159.499C602.176 157.965 598.201 153.799 594.676 151.799C580.426 143.932 543.526 126.932 533.026 149.432C526.276 163.632 543.038 177.632 548.851 184.832C553.163 189.832 558.601 195.565 561.601 201.199C563.363 204.999 563.851 208.899 565.613 212.865C569.588 222.499 573.376 233.199 578.626 242.232C581.363 246.799 584.363 251.632 587.888 255.732C589.913 258.132 593.363 259.232 594.151 263.165C590.626 267.632 590.401 274.099 588.376 279.532C579.376 304.299 582.901 334.932 595.651 353.165C599.663 358.599 609.226 370.632 622.013 366.032C633.263 362.099 630.788 349.665 634.013 338.699C634.763 336.065 634.276 334.332 635.813 332.565V333.065C639.338 339.232 642.863 345.065 646.088 351.232C653.813 361.965 667.313 373.099 678.601 380.532C684.601 384.465 689.363 391.265 696.863 393.699V393.032H696.301C694.688 391.132 692.551 390.232 690.526 388.665C685.775 384.608 681.387 380.228 677.401 375.565C666.849 362.982 657.479 349.648 649.388 335.699C645.263 328.832 641.813 321.432 638.513 314.665C637.013 312.065 637.013 308.132 634.501 306.799C630.751 311.565 625.238 315.732 622.501 321.632C617.738 331.065 617.251 342.632 615.451 354.699C614.438 354.932 614.926 354.699 614.438 355.165C606.413 353.465 603.676 346.199 600.676 340.099C593.176 324.565 591.938 299.599 598.426 281.665C600.188 277.099 607.688 262.632 604.688 258.232C603.113 254.065 598.163 251.699 595.426 248.332C591.915 243.952 588.9 239.274 586.426 234.365C580.426 222.132 577.426 208.565 570.901 196.332C567.901 190.665 562.651 184.732 558.376 179.532C553.613 173.632 548.363 169.499 544.576 162.499C543.338 160.099 541.576 156.132 543.563 153.532C544.088 151.765 545.138 151.065 547.088 150.599C550.388 148.232 559.651 151.332 562.913 152.632C572.176 155.899 579.976 158.965 587.738 163.565C591.263 165.732 595.051 169.865 599.551 170.965H604.801C612.826 172.499 621.863 171.432 629.363 173.365C642.676 177.099 654.676 182.532 665.438 188.432C698.472 206.793 725.448 232.601 743.626 263.232C746.626 268.265 747.938 272.899 750.676 278.132C755.926 288.932 762.413 299.832 767.738 310.265C772.988 320.565 778.051 331.099 785.588 339.632C789.338 344.199 804.413 346.599 811.163 348.999C816.151 350.965 823.913 352.765 828.413 355.165C837.038 359.732 845.438 364.999 853.538 370.032C857.663 372.532 870.151 377.999 870.901 382.399C850.838 381.932 835.276 383.699 822.263 388.565C818.513 389.865 812.513 389.865 811.988 394.032C814.051 395.765 814.351 398.599 816.113 401.032C819.113 405.399 824.288 411.265 829.088 414.365C834.338 417.965 839.588 421.432 845.101 424.499C854.851 429.732 865.913 432.832 875.476 438.099C880.913 441.165 886.463 445.065 891.976 448.332C894.713 449.965 896.476 452.932 900.001 453.965V453.332C898.276 451.365 897.751 448.532 896.063 446.332C893.551 444.132 891.038 442.165 888.563 439.999Z" fill="#105E86"/>
</g>
<defs>
<clipPath id="clip0_11_37">
<rect width="900" height="800" fill="white"/>
</clipPath>
</defs>
</svg>
