<svg width="900" height="800" viewBox="0 0 900 800" fill="none" xmlns="http://www.w3.org/2000/svg">
<path d="M450 795.335C698.528 795.335 900 617.293 900 397.668C900 178.042 698.528 0 450 0C201.472 0 0 178.042 0 397.668C0 617.293 201.472 795.335 450 795.335Z" fill="#8993BE"/>
<path fill-rule="evenodd" clip-rule="evenodd" d="M126.369 633.129L175.686 209.296H289.723C339.036 214.53 363.695 256.386 363.695 329.647C363.695 455.226 305.135 528.481 252.735 523.247H197.262L184.932 633.129H126.369ZM209.588 444.763L225 287.785H265.068C286.643 287.785 302.052 303.482 302.052 334.875C298.972 423.833 274.314 439.529 246.575 444.763H209.588ZM352.238 523.247L401.551 99.4199H460.114L447.785 209.296H503.262C552.579 214.53 571.071 256.386 564.908 308.716L543.333 523.247H481.69L503.265 329.647C506.345 303.482 506.345 287.785 484.773 287.785H438.539L410.801 523.247H352.238ZM539.385 633.129L588.698 209.296H702.738C752.055 214.53 776.714 256.386 776.714 329.647C776.714 455.226 718.151 528.481 665.754 523.247H610.274L597.945 633.129H539.385ZM622.6 444.763L638.012 287.785H678.083C699.659 287.785 715.068 303.482 715.068 334.875C711.988 423.833 687.329 439.529 659.591 444.763H622.603H622.6Z" fill="#232531"/>
</svg>
