<svg width="900" height="800" viewBox="0 0 900 800" fill="none" xmlns="http://www.w3.org/2000/svg">
<path d="M0 398.562C0 465.761 66.3707 528.491 171.005 563.851C150.11 667.848 167.262 751.673 224.545 784.333C283.424 817.906 371.143 794.667 454.4 722.712C535.557 791.761 617.577 818.935 674.811 786.18C733.636 752.512 751.525 663.004 730.053 555.758C839.038 520.136 900 466.646 900 398.562C900 332.923 833.509 276.138 730.283 241.005C753.399 129.329 733.813 47.5392 674.156 13.5288C616.643 -19.2612 533.668 9.3181 451.319 80.1717C365.646 4.96756 283.491 -17.9917 223.898 16.1132C166.438 48.9975 150.042 134.347 171.005 240.267C69.9009 275.117 0 333.188 0 398.562Z" fill="white"/>
<path d="M708.422 275.894C699.915 273.009 691.336 270.336 682.692 267.878C684.125 262.12 685.451 256.335 686.668 250.528C706.144 157.055 693.41 81.7526 649.922 56.9643C608.228 33.1902 540.035 57.9785 471.164 117.232C464.377 123.084 457.742 129.105 451.263 135.288C446.924 131.176 442.509 127.145 438.019 123.195C365.84 59.832 293.491 33.1343 250.05 57.996C208.394 81.8365 196.056 152.631 213.59 241.215C215.335 249.988 217.305 258.715 219.498 267.388C209.261 270.263 199.374 273.327 189.915 276.586C105.295 305.753 51.2523 351.469 51.2523 398.884C51.2523 447.859 109.264 496.981 197.407 526.763C204.554 529.167 211.761 531.394 219.02 533.443C216.662 542.787 214.568 552.195 212.742 561.655C196.024 648.701 209.08 717.816 250.626 741.51C293.537 765.973 365.557 740.828 435.688 680.221C441.231 675.43 446.795 670.348 452.367 665.022C459.384 671.716 466.589 678.215 473.973 684.512C541.903 742.304 608.992 765.641 650.502 741.884C693.375 717.347 707.305 643.098 689.215 552.761C687.835 545.861 686.226 538.814 684.422 531.638C689.48 530.162 694.443 528.638 699.286 527.05C790.916 497.037 850.531 448.513 850.531 398.884C850.531 351.297 794.747 305.274 708.422 275.894Z" fill="#53C1DE"/>
<path d="M688.546 495.008C684.178 496.438 679.692 497.819 675.122 499.159C665.005 467.498 651.351 433.831 634.648 399.051C650.591 365.093 663.714 331.859 673.548 300.401C681.723 302.744 689.66 305.21 697.308 307.815C771.273 332.985 816.388 370.206 816.388 398.883C816.388 429.431 767.658 469.09 688.546 495.008ZM655.72 559.318C663.718 599.263 664.86 635.379 659.561 663.612C654.8 688.981 645.228 705.893 633.392 712.667C608.203 727.083 554.333 708.345 496.243 658.922C489.583 653.257 482.872 647.206 476.144 640.807C498.667 616.452 521.174 588.138 543.141 556.698C581.783 553.31 618.288 547.767 651.394 540.202C653.021 546.707 654.471 553.082 655.72 559.318ZM323.743 710.177C299.133 718.77 279.533 719.015 267.687 712.262C242.473 697.888 231.995 642.387 246.289 567.949C247.989 559.152 249.936 550.403 252.126 541.713C284.864 548.872 321.104 554.023 359.837 557.129C381.949 587.894 405.108 616.172 428.447 640.936C423.487 645.68 418.409 650.302 413.219 654.799C382.207 681.602 351.132 700.612 323.746 710.177H323.743ZM208.451 494.819C169.477 481.648 137.291 464.533 115.228 445.858C95.4051 429.071 85.3945 412.407 85.3945 398.883C85.3945 370.111 128.787 333.408 201.157 308.462C210.24 305.345 219.414 302.491 228.667 299.905C238.67 332.069 251.79 365.698 267.623 399.705C251.585 434.219 238.277 468.383 228.182 500.925C221.555 499.05 214.976 497.014 208.451 494.819ZM247.1 234.731C232.077 158.83 242.052 101.577 267.156 87.2109C293.898 71.9071 353.024 93.7297 415.345 148.437C419.328 151.934 423.329 155.595 427.336 159.383C404.118 184.035 381.171 212.1 359.25 242.687C321.659 246.131 285.674 251.664 252.593 259.075C250.555 251.006 248.723 242.891 247.1 234.731ZM591.871 318.898C584.058 305.554 575.954 292.378 567.566 279.38C593.07 282.562 617.503 286.794 640.446 291.973C633.559 313.799 624.974 336.622 614.864 360.018C607.477 346.162 599.812 332.452 591.871 318.898ZM451.273 183.507C467.022 200.374 482.795 219.21 498.309 239.644C466.838 238.174 435.314 238.167 403.842 239.623C419.37 219.378 435.278 200.57 451.273 183.507ZM309.774 319.129C301.933 332.575 294.41 346.201 287.213 359.994C277.269 336.678 268.762 313.754 261.815 291.616C284.62 286.57 308.939 282.447 334.277 279.317C325.795 292.396 317.625 305.67 309.774 319.129ZM335.005 520.859C308.829 517.97 284.142 514.057 261.344 509.15C268.401 486.621 277.096 463.204 287.252 439.388C294.48 453.191 302.035 466.825 309.912 480.277C317.949 494 326.316 507.531 335.005 520.859ZM452.218 616.644C436.035 599.378 419.894 580.284 404.128 559.745C419.431 560.339 435.034 560.64 450.891 560.64C467.184 560.64 483.29 560.28 499.14 559.58C483.576 580.494 467.86 599.616 452.218 616.644ZM615.189 438.174C625.872 462.249 634.878 485.541 642.03 507.688C618.854 512.917 593.835 517.127 567.471 520.254C575.919 507.012 584.1 493.606 592.009 480.043C600.049 466.258 607.778 452.299 615.189 438.174ZM562.43 463.179C550.323 483.974 537.534 504.373 524.086 524.346C500.371 526.021 475.865 526.885 450.891 526.885C426.021 526.885 401.825 526.119 378.525 524.625C364.727 504.699 351.697 484.265 339.462 463.365C327.285 442.576 315.91 421.337 305.363 399.694C315.883 378.045 327.224 356.795 339.36 335.989V335.996C351.492 315.185 364.42 294.838 378.115 274.998C401.885 273.221 426.258 272.291 450.895 272.291C475.642 272.291 500.046 273.228 523.81 275.019C537.366 294.828 550.211 315.105 562.321 335.811C574.499 356.57 585.99 377.717 596.778 399.215C586.101 420.933 574.643 442.268 562.43 463.179ZM632.869 86.2072C659.632 101.469 670.043 163.01 653.226 243.715C652.124 248.972 650.926 254.21 649.632 259.424C616.473 251.86 580.463 246.229 542.763 242.732C520.799 211.813 498.044 183.699 475.2 159.365C481.186 153.66 487.315 148.102 493.58 142.698C552.589 91.9251 607.74 71.8791 632.869 86.2072Z" fill="white"/>
<path d="M450.891 328.32C490.311 328.32 522.264 359.914 522.264 398.884C522.264 437.857 490.311 469.451 450.891 469.451C411.475 469.451 379.519 437.857 379.519 398.884C379.519 359.914 411.475 328.32 450.891 328.32Z" fill="#53C1DE"/>
</svg>
